<?xml version="1.0" encoding="UTF-8"?>
<svg id="Layer_1" xmlns="http://www.w3.org/2000/svg" width="512" height="512" version="1.1" viewBox="0 0 512 512">
  <!-- Generator: Adobe Illustrator 29.8.3, SVG Export Plug-In . SVG Version: 2.1.1 Build 3)  -->
  <path d="M508.03,485.12h-74.85l-3.05-6.57-75-158.25,45.98-64.31,106.92,229.12ZM345.05,334.51l71.33,150.61H19.24l122.2-213.85,45.82,61.1,91.65-137.47,66.14,139.61ZM278.91,225.45l-91.65,137.47-45.82-61.1-61.1,106.92,61.1-61.1,45.82,61.1,91.65-152.75v-30.55ZM42.15,164.35c-21.08,0-38.19-17.11-38.19-38.19s17.11-38.19,38.19-38.19c2.9,0,5.65.3,8.25.92,3.51-34.67,32.38-62.02,68.13-62.02,20.93,0,39.41,9.47,52.09,24.29,6.57-5.5,14.97-9.01,24.29-9.01,21.08,0,38.19,17.11,38.19,38.19,0,2.9-.31,5.65-.92,8.25,17.87,3.21,31.47,18.79,31.47,37.58,0,21.08-17.11,38.19-38.19,38.19H42.15ZM66.9,95.62c0,3.21,2.6,5.8,5.8,5.8s5.8-2.6,5.8-5.8c0-22.15,17.87-40.02,40.02-40.02,3.21,0,5.8-2.6,5.8-5.8s-2.6-5.8-5.8-5.8c-28.41,0-51.63,23.22-51.63,51.63Z"/>
</svg>